<?xml version="1.0" encoding="iso-8859-1"?>
<!-- Uploaded to: SVG Repo, www.svgrepo.com, Generator: SVG Repo Mixer Tools -->
<svg fill="#000000" height="800px" width="800px" version="1.1" id="Layer_1" xmlns="http://www.w3.org/2000/svg" xmlns:xlink="http://www.w3.org/1999/xlink" 
	 viewBox="0 0 512 512" xml:space="preserve">
<g>
	<g>
		<g>
			<path d="M440.647,367.569h-10.349V177.112h10.349c6.016,0,10.894-4.877,10.894-10.894s-4.878-10.894-10.894-10.894h-11.511
				c-6.524-38.642-40.207-68.176-80.676-68.176h-13.481V21.787h19.064c6.016,0,10.894-4.877,10.894-10.894S360.058,0,354.043,0
				H157.957c-6.015,0-10.894,4.877-10.894,10.894s4.878,10.894,10.894,10.894h19.064v65.362H163.54
				c-40.469,0-74.152,29.534-80.676,68.176H71.353c-6.015,0-10.894,4.877-10.894,10.894s4.878,10.894,10.894,10.894h10.349v190.456
				H71.353c-6.015,0-10.894,4.877-10.894,10.894c0,6.017,4.878,10.894,10.894,10.894h11.511
				c6.221,36.849,37.143,65.392,75.093,67.964v32.893h-13.187c-6.015,0-10.894,4.877-10.894,10.894S138.755,512,144.771,512h222.46
				c6.015,0,10.894-4.877,10.894-10.894s-4.878-10.894-10.894-10.894h-13.188v-32.892c37.95-2.572,68.872-31.115,75.093-67.964
				h11.511c6.016,0,10.894-4.877,10.894-10.894S446.662,367.569,440.647,367.569z M198.809,21.787h114.383v65.362h-46.298V63.455
				h8.17c6.015,0,10.894-4.877,10.894-10.894s-4.878-10.894-10.894-10.894h-38.128c-6.015,0-10.894,4.877-10.894,10.894
				s4.878,10.894,10.894,10.894h8.17v23.694h-46.298V21.787z M163.54,108.936H348.46c28.413,0,52.261,19.841,58.464,46.388H105.077
				C111.279,128.777,135.128,108.936,163.54,108.936z M216.056,490.213h-36.312v-32.681h36.312V490.213z M274.156,490.213h-36.313
				v-32.681h36.313V490.213z M332.255,490.213h-36.312v-32.681h36.312V490.213z M348.46,435.745H163.54
				c-28.413,0-52.261-19.841-58.464-46.388h301.848C400.721,415.904,376.872,435.745,348.46,435.745z M408.511,367.568H103.489
				V177.112h305.021V367.568z"/>
			<path d="M375.285,314.771H198.809c-6.015,0-10.894,4.877-10.894,10.894c0,6.017,4.878,10.894,10.894,10.894h176.477
				c6.016,0,10.894-4.877,10.894-10.894C386.179,319.648,381.301,314.771,375.285,314.771z"/>
			<path d="M141.072,336.558h1.362c6.015,0,10.894-4.877,10.894-10.894c0-6.017-4.878-10.894-10.894-10.894h-1.362
				c-6.015,0-10.894,4.877-10.894,10.894C130.179,331.681,135.057,336.558,141.072,336.558z"/>
			<path d="M165.583,292.984c19.522,0,35.404-15.882,35.404-35.404c0-16.502-20.96-40.583-27.385-47.57
				c-2.063-2.244-4.971-3.521-8.019-3.521c-3.048,0-5.957,1.277-8.019,3.521c-6.424,6.988-27.385,31.07-27.385,47.57
				C130.179,277.101,146.061,292.984,165.583,292.984z M165.587,234.225c7.743,9.883,13.613,19.687,13.613,23.355
				c0,7.509-6.108,13.617-13.617,13.617s-13.617-6.108-13.617-13.617C151.966,253.926,157.84,244.119,165.587,234.225z"/>
			<path d="M258.179,292.984c19.522,0,35.404-15.883,35.404-35.404c0-16.502-20.96-40.583-27.385-47.57
				c-2.063-2.244-4.971-3.521-8.019-3.521c-3.048,0-5.957,1.277-8.019,3.521c-6.424,6.988-27.385,31.07-27.385,47.57
				C222.774,277.102,238.656,292.984,258.179,292.984z M258.183,234.225c7.743,9.883,13.613,19.687,13.613,23.355
				c0,7.509-6.108,13.617-13.617,13.617c-7.509,0-13.617-6.108-13.617-13.617C244.562,253.926,250.436,244.119,258.183,234.225z"/>
			<path d="M350.774,292.984c19.522,0,35.404-15.883,35.404-35.404c0-16.502-20.96-40.583-27.385-47.57
				c-2.063-2.244-4.971-3.521-8.019-3.521s-5.957,1.277-8.019,3.521c-6.424,6.988-27.385,31.07-27.385,47.57
				C315.37,277.102,331.252,292.984,350.774,292.984z M350.779,234.225c7.743,9.883,13.613,19.687,13.613,23.355
				c0,7.509-6.108,13.617-13.617,13.617s-13.617-6.108-13.617-13.617C337.157,253.926,343.031,244.119,350.779,234.225z"/>
		</g>
	</g>
</g>
</svg>