<?xml version="1.0" encoding="utf-8"?>
<!-- Svg Vector Icons : http://www.onlinewebfonts.com/icon -->
<!DOCTYPE svg PUBLIC "-//W3C//DTD SVG 1.1//EN" "http://www.w3.org/Graphics/SVG/1.1/DTD/svg11.dtd">
<svg version="1.1" xmlns="http://www.w3.org/2000/svg" xmlns:xlink="http://www.w3.org/1999/xlink" x="0px" y="0px" viewBox="0 0 256 256" enable-background="new 0 0 256 256" xml:space="preserve">
<metadata> Svg Vector Icons : http://www.onlinewebfonts.com/icon </metadata>
<g><g><path fill="#000000" d="M88.1,168.9c16.7,12.4,37.2,6.3,37.2,6.3c-0.6,0.4-24.7-2.2-24.4-24.2c0-7.9,3-16.2,0.8-24.9c-2-7.8-9.8-14.6-13.3-16.3c0,0-1.9,0.9-6.6,6.5C75.5,123.8,62.9,150.2,88.1,168.9z"/><path fill="#000000" d="M113,82.1c-20.1,7.1-24.4,26.5-24.4,26.5c0-0.6,14.3-18.5,35.1-7.5c7.5,4,13.9,10.4,23.3,13c8.4,2.3,18.7-0.5,22.1-2.5c0,0,0.1-2-2.9-8.5C162.2,94.4,143.3,71.3,113,82.1z"/><path fill="#000000" d="M182.5,145.1c3.4-19.4-12.7-32.6-12.7-32.6c0.6,0.3,10.3,20.6-10.7,31.5c-7.5,3.9-16.8,5.7-24,11.8c-6.4,5.4-8.9,15-8.8,18.7c0,0,1.8,1,9.5,2C146.1,177.7,177.5,174.5,182.5,145.1z"/><path fill="#000000" d="M128,10C62.9,10,10,62.9,10,128c0,65,52.9,118,118,118c65,0,118-53,118-118C246,62.9,193,10,128,10z M128,240.5C66,240.5,15.5,190,15.5,128C15.5,66,66,15.5,128,15.5c62,0,112.5,50.5,112.5,112.5C240.5,190,190,240.5,128,240.5z"/></g></g>
</svg>